#!OML:ASF \\sashay\E\Suitcase\Project 1\Capture day 1\Session 1\Male1.ASF
:FULLY-SPECIFIED
:DEGREES
695
root -1.18003 17.5781 10.2369 8.44348 5.94416 -1.68952
lowerback 0.479519 -0.728375 3.26199
upperback -0.384204 -0.922842 3.26776
thorax -0.660926 -0.467349 1.53288
lowerneck -17.9455 -0.766296 -3.78077
upperneck 23.7256 2.05497 -7.33131
head 10.7084 -0.303345 -1.70607
rclavicle 5.56597e-015 3.26007e-014
rhumerus -49.489 -42.0852 -43.9718
rradius 13.0966
rwrist 9.03252
rhand -8.44227 17.1056
rfingers 7.12502
rthumb 17.4832 -12.1282
lclavicle 5.56597e-015 3.26007e-014
lhumerus -37.0792 -7.38469 89.2301
lradius 39.8379
lwrist -2.48225
lhand 0.815887 44.3942
lfingers 7.12502
lthumb 26.3716 72.5803
rfemur -6.04923 -0.214782 25.1716
rtibia 11.7163
rfoot -13.7096 -17.0875
rtoes 15.944
lfemur -8.8497 -4.85797 -14.6958
ltibia 16.8231
lfoot -14.8187 3.29153
ltoes 0.0336708
696
root -1.18282 17.5707 10.2582 8.49315 5.90734 -1.77929
lowerback 0.394423 -0.749021 3.36972
upperback -0.3409 -0.956284 3.29859
thorax -0.569933 -0.483468 1.50306
lowerneck -17.8673 -0.713216 -3.68034
upperneck 23.5031 2.08687 -7.376
head 10.6125 -0.275351 -1.72891
rclavicle 6.36111e-015 8.74653e-015
rhumerus -50.9972 -43.1428 -41.8893
rradius 12.9518
rwrist 11.0655
rhand -8.11033 16.4629
rfingers 7.12502
rthumb 17.8027 -12.7422
lclavicle 6.36111e-015 8.74653e-015
lhumerus -37.2554 -7.32566 89.1891
lradius 39.9014
lwrist -2.56412
lhand 1.17464 44.5218
lfingers 7.12502
lthumb 26.715 72.656
rfemur -5.98956 -0.182556 25.3005
rtibia 11.6378
rfoot -13.7661 -17.1211
rtoes 16.0386
lfemur -8.7986 -4.59607 -14.5532
ltibia 16.8101
lfoot -14.9777 3.00851
ltoes 0.191435
697
root -1.20042 17.5677 10.2936 8.64907 5.74246 -1.55928
lowerback 0.0394799 -0.699935 2.98962
upperback -0.164846 -0.920896 3.26747
thorax -0.184587 -0.461257 1.67641
lowerneck -18.1809 -0.724739 -3.70362
upperneck 23.3744 2.07607 -7.32716
head 10.6245 -0.278291 -1.70917
rclavicle 8.15017e-015 -1.11319e-014
rhumerus -51.7479 -43.3124 -41.0861
rradius 12.914
rwrist 11.715
rhand -8.25958 16.4667
rfingers 7.12502
rthumb 17.6591 -12.7514
lclavicle 8.15017e-015 -1.11319e-014
lhumerus -37.127 -7.3108 89.1635
lradius 39.9114
lwrist -2.27606
lhand 1.05779 44.9683
lfingers 7.12502
lthumb 26.6032 73.1195
rfemur -6.10784 0.564324 25.1331
rtibia 11.813
rfoot -14.0797 -17.7235
rtoes 16.4254
lfemur -8.75559 -4.49771 -14.6991
ltibia 16.6979
lfoot -15.0597 2.90088
ltoes 0.607106
698
root -1.2006 17.5637 10.3067 8.5787 5.94569 -1.99964
lowerback 0.0469166 -0.759778 3.57756
upperback 0.00401233 -1.00696 3.38031
thorax -0.0230207 -0.502324 1.46281
lowerneck -18.3982 -0.716928 -3.68222
upperneck 23.173 2.08215 -7.3388
head 10.5926 -0.272168 -1.71389
rclavicle -9.34288e-015 -7.95139e-015
rhumerus -52.455 -43.702 -40.1685
rradius 12.7124
rwrist 12.7418
rhand -8.26295 16.2889
rfingers 7.12502
rthumb 17.6558 -12.9294
lclavicle -9.34288e-015 -7.95139e-015
lhumerus -37.1532 -7.23898 89.1108
lradius 40.1469
lwrist -2.37247
lhand 1.30706 44.9085
lfingers 7.12502
lthumb 26.8417 73.0233
rfemur -5.99389 0.171879 25.6579
rtibia 11.7696
rfoot -14.0822 -17.5472
rtoes 16.3267
lfemur -8.68015 -4.57758 -14.1403
ltibia 16.6726
lfoot -15.1526 2.62707
ltoes 1.27859
699
root -1.2147 17.5711 10.3111 9.07266 5.83295 -1.44799
lowerback -0.103428 -0.781114 2.86695
upperback -0.165016 -1.03682 3.28568
thorax -0.101221 -0.518546 1.76182
lowerneck -18.2497 -0.652216 -3.56755
upperneck 22.9492 2.13454 -7.43603
head 10.4851 -0.238542 -1.75445
rclavicle -1.94809e-014 3.18055e-014
rhumerus -52.1204 -42.2036 -41.1849
rradius 12.7995
rwrist 11.8196
rhand -8.2257 15.7612
rfingers 7.12502
rthumb 17.6917 -13.454
lclavicle -1.94809e-014 3.18055e-014
lhumerus -37.3601 -6.94787 89.0472
lradius 40.0507
lwrist -2.39222
lhand 0.949291 44.6682
lfingers 7.12502
lthumb 26.4993 72.8351
rfemur -6.45875 0.772558 25.118
rtibia 11.7354
rfoot -14.0984 -18.0991
rtoes 16.559
lfemur -9.14437 -4.62295 -14.6073
ltibia 16.5777
lfoot -15.0505 2.45958
ltoes 2.15631
700
root -1.21489 17.5706 10.3318 9.04164 6.09536 -1.61083
lowerback -0.112851 -0.865699 3.22287
upperback -0.0487395 -1.15525 3.29613
thorax 0.0176429 -0.576483 1.57231
lowerneck -18.4361 -0.631719 -3.48973
upperneck 22.7693 2.14206 -7.45323
head 10.4554 -0.227661 -1.7705
rclavicle -1.5704e-014 1.43125e-014
rhumerus -51.7131 -41.1778 -42.1884
rradius 12.8494
rwrist 11.0084
rhand -8.26113 14.9832
rfingers 7.12502
rthumb 17.6576 -14.235
lclavicle -1.5704e-014 1.43125e-014
lhumerus -37.277 -6.50871 88.8648
lradius 39.9098
lwrist -2.65711
lhand 1.56511 44.9491
lfingers 7.12502
lthumb 27.0886 73.0257
rfemur -6.19858 0.432548 25.35
rtibia 11.4569
rfoot -14.0111 -18.0605
rtoes 16.2966
lfemur -9.15131 -4.79223 -14.3454
ltibia 16.6614
lfoot -15.1654 2.16608
ltoes 2.99987
701
root -1.21982 17.5753 10.3376 9.21496 6.16314 -1.46723
lowerback 0.0135955 -0.863906 3.18038
upperback -0.0939813 -1.14366 3.26329
thorax -0.0995901 -0.57181 1.56487
lowerneck -18.5503 -0.655282 -3.53286
upperneck 22.6363 2.11522 -7.43911
head 10.4277 -0.239456 -1.76042
rclavicle 5.96354e-016 -7.95139e-016
rhumerus -51.9569 -40.5562 -42.1956
rradius 12.7413
rwrist 11.0587
rhand -7.90248 14.7465
rfingers 7.12502
rthumb 18.0027 -14.4404
lclavicle 5.96354e-016 -7.95139e-016
lhumerus -37.2394 -6.64522 88.9226
lradius 39.7628
lwrist -2.65217
lhand 1.50872 44.8127
lfingers 7.12502
lthumb 27.0347 72.8977
rfemur -6.31955 0.427686 25.2306
rtibia 11.3901
rfoot -13.9445 -18.1758
rtoes 16.0982
lfemur -9.30939 -4.92617 -14.4234
ltibia 16.5627
lfoot -15.0584 2.02476
ltoes 3.6955
702
root -1.22929 17.5747 10.359 9.1443 6.19767 -1.7502
lowerback 0.262219 -0.909302 3.44641
upperback -0.135762 -1.18685 3.3369
thorax -0.285656 -0.595335 1.49702
lowerneck -18.5842 -0.587043 -3.39699
upperneck 22.5652 2.17294 -7.46668
head 10.4101 -0.202763 -1.78349
rclavicle -2.14687e-014 1.59028e-014
rhumerus -51.2164 -38.5116 -44.0765
rradius 12.9262
rwrist 9.19704
rhand -8.05654 13.7001
rfingers 7.12502
rthumb 17.8544 -15.5003
lclavicle -2.14687e-014 1.59028e-014
lhumerus -37.5303 -6.57423 88.9004
lradius 39.7544
lwrist -2.19381
lhand 0.655285 44.6478
lfingers 7.12502
lthumb 26.2179 72.8568
rfemur -6.05611 0.67899 25.5895
rtibia 11.0996
rfoot -13.8512 -18.4638
rtoes 15.9312
lfemur -9.26574 -5.01843 -14.0512
ltibia 16.6408
lfoot -15.1076 2.00527
ltoes 4.10167
703
root -1.2397 17.5752 10.3817 9.26862 6.10728 -1.64772
lowerback 0.32696 -0.877709 3.26771
upperback -0.307667 -1.13357 3.37205
thorax -0.494237 -0.570813 1.63573
lowerneck -18.2342 -0.61497 -3.5866
upperneck 22.4475 2.13041 -7.36572
head 10.2973 -0.214778 -1.71637
rclavicle -2.48481e-014 -7.95139e-015
rhumerus -51.295 -36.8182 -44.9559
rradius 13.0844
rwrist 7.78371
rhand -8.01147 13.5964
rfingers 7.12502
rthumb 17.8978 -15.6001
lclavicle -2.48481e-014 -7.95139e-015
lhumerus -38.1093 -6.45397 88.9558
lradius 39.9414
lwrist -2.44365
lhand 0.970396 44.495
lfingers 7.12502
lthumb 26.5195 72.6589
rfemur -6.06836 0.982875 25.5179
rtibia 10.9978
rfoot -13.8378 -18.7129
rtoes 15.855
lfemur -9.27016 -4.93704 -14.1112
ltibia 16.5125
lfoot -15.0727 1.91622
ltoes 4.19274
704
root -1.24436 17.5765 10.3842 9.43952 6.18077 -1.7501
lowerback 0.514414 -0.921683 3.46446
upperback -0.384763 -1.17576 3.39705
thorax -0.681916 -0.594466 1.55634
lowerneck -18.4313 -0.608522 -3.60963
upperneck 22.4186 2.14019 -7.29944
head 10.3232 -0.20755 -1.68864
rclavicle 2.06736e-014 5.56597e-015
rhumerus -51.0631 -35.5031 -46.0443
rradius 13.1591
rwrist 6.36357
rhand -8.12142 13.0244
rfingers 7.12502
rthumb 17.792 -16.1817
lclavicle 2.06736e-014 5.56597e-015
lhumerus -38.1356 -6.2486 88.8445
lradius 39.8247
lwrist -2.72818
lhand 0.841782 44.3314
lfingers 7.12502
lthumb 26.3964 72.5138
rfemur -6.12336 1.08028 25.6641
rtibia 10.7052
rfoot -13.691 -18.8947
rtoes 15.9132
lfemur -9.54351 -4.97771 -13.9373
ltibia 16.616
lfoot -15.1048 1.8495
ltoes 4.09689
705
root -1.23878 17.5805 10.4151 9.63208 6.53233 -1.38403
lowerback 0.24366 -1.14993 3.35724
upperback -0.373795 -1.49824 3.23053
thorax -0.519829 -0.754151 1.44234
lowerneck -18.5408 -0.499322 -3.33546
upperneck 22.3307 2.22887 -7.37218
head 10.3156 -0.151344 -1.74684
rclavicle -2.98177e-015 -1.43125e-014
rhumerus -51.1429 -35.0378 -46.311
rradius 13.0745
rwrist 6.45773
rhand -8.01238 12.7653
rfingers 7.12502
rthumb 17.8969 -16.4312
lclavicle -2.98177e-015 -1.43125e-014
lhumerus -38.2964 -6.25563 88.734
lradius 39.6576
lwrist -2.52101
lhand 0.639959 44.4063
lfingers 7.12502
lthumb 26.2032 72.6175
rfemur -6.1391 0.269984 25.2856
rtibia 10.6811
rfoot -13.7891 -18.5247
rtoes 15.7904
lfemur -9.5734 -5.06109 -14.3233
ltibia 16.4991
lfoot -15.199 1.51345
ltoes 3.98951
